<?xml version="1.0" encoding="utf-8"?>
<!-- Generator: Adobe Illustrator 26.1.0, SVG Export Plug-In . SVG Version: 6.00 Build 0)  -->
<svg version="1.1" id="Layer_1" xmlns="http://www.w3.org/2000/svg" xmlns:xlink="http://www.w3.org/1999/xlink" x="0px"
  y="0px" viewBox="0 0 421.2 340.2" style="enable-background:new 0 0 421.2 340.2;" xml:space="preserve">
  <style type="text/css">
    .st0 {
      fill: #82B4F5;
    }

    .st1 {
      fill: #8714BE;
    }
  </style>
  <g>
    <path class="st0" d="M296.9,224.6c-38.6,23.1-161.7,98.9-187.9,114.6c32.3,0,71.6,0.9,121.1-29.5
		C269.2,285.7,287.9,244.2,296.9,224.6z" />
  </g>
  <path class="st1" d="M62.9,340.2H0L8.2,273L41.8,0c0,0,86.4,0,115.5,0C215.5-0.6,271.5,15.7,298,83.2c-21,14.4-46.5,26.5-60.6,38
	c-13.8-42.9-53.4-57.8-88.1-57.8c-20.1,0-48.7,0.5-48.7,0.5L76,247L421.2,44.9L390.6,137L62.9,340.2z" />
</svg>