<?xml version="1.0" encoding="utf-8"?>
<!-- Generator: Adobe Illustrator 26.1.0, SVG Export Plug-In . SVG Version: 6.00 Build 0)  -->
<svg version="1.1" id="Layer_1" xmlns="http://www.w3.org/2000/svg" xmlns:xlink="http://www.w3.org/1999/xlink" x="0px"
  y="0px" viewBox="0 0 569 130.1" style="enable-background:new 0 0 569 130.1;" xml:space="preserve">
  <style type="text/css">
    .st0 {
      fill: #000000;
    }

    .st1 {
      fill: #000000;
    }
  </style>
  <g>
    <path class="st0" d="M227.7,11.3l-6.8,56c-1.8-1.6-4-3-6.7-4.2c-4.1-1.9-8.7-2.8-13.9-2.8c-6.3,0-11.9,1.1-16.8,3.4
		c-4.8,2.3-8.9,5.3-12.2,9c-3.3,3.8-5.8,7.9-7.4,12.4c-1.6,4.5-2.4,9-2.4,13.6c0,5.6,1.4,10.9,4.1,15.7c2.7,4.8,6.5,8.6,11.3,11.5
		c4.8,2.9,10.3,4.3,16.5,4.3c4.4,0,8.3-1,11.8-2.9c2.9-1.6,5.9-3.5,9-5.7l-0.9,6.9h20.8l14.4-117.1H227.7z M216.4,102.8
		c-1.5,2.2-3.1,4-4.9,5.4c-1.8,1.4-3.6,2.5-5.6,3.3c-1.9,0.7-4,1.1-6.2,1.1c-3.5,0-6.5-0.7-9-2.1c-2.6-1.4-4.6-3.4-5.9-5.9
		c-1.4-2.6-2.1-5.6-2.1-9.1c0-4,0.8-7.3,2.4-10.2c1.6-2.8,3.9-5,6.9-6.5c3-1.5,6.4-2.3,10.2-2.3c2.8,0,5.3,0.4,7.5,1.3
		c2.2,0.8,4.1,2,5.6,3.6c1.5,1.5,2.5,3.4,3,5.6L216.4,102.8z" />
    <path class="st0" d="M339.5,60.3c-4.3,0-8.5,1.2-12.7,3.7c-4.1,2.4-7.7,5.4-10.8,9c-0.5-4.5-2.4-7.7-5.5-9.7c-3.2-2-7.4-3-12.7-3
		c-5.4,0-10.3,1.2-14.5,3.6c-4.1,2.4-7.6,5.7-10.7,9.9l-0.2-10.2h-18.8l-7.9,64.8h20.8l3.3-26.9c0.5-3.8,1.5-7.4,3-11
		c1.5-3.6,3.6-6.5,6.1-8.8c2.5-2.3,5.4-3.5,8.7-3.5c2.9,0.2,4.6,1.2,5.3,3c0.7,1.8,0.9,4.2,0.7,7l-4.9,40.1h20.8l3.3-26.6
		c0.5-3.9,1.5-7.6,3.1-11.2c1.6-3.6,3.7-6.6,6.2-8.9c2.6-2.3,5.5-3.5,8.9-3.5c2.9,0.2,4.6,1.2,5.1,3c0.5,1.8,0.7,4.2,0.5,7
		l-4.9,40.1h20.6l5.9-48.7c0.6-5.7-0.8-10.4-4.2-14C350.8,62.1,345.9,60.3,339.5,60.3z" />
    <path class="st0" d="M420.9,70.2c-1.1-1.7-2.5-3.2-4.1-4.7c-1.7-1.5-3.9-2.8-6.6-3.8c-2.7-1-6.3-1.5-10.6-1.5
		c-5.3,0-10.2,1.1-14.7,3.2c-4.5,2.1-8.3,5-11.6,8.6c-3.3,3.6-5.8,7.7-7.6,12.2c-1.8,4.5-2.7,9.2-2.7,14c0,6.7,1.3,12.5,3.9,17.2
		c2.6,4.7,6,8.4,10,10.8c4.1,2.5,8.2,3.7,12.5,3.6c4.4,0.1,8.2-0.4,11.5-1.6c3.3-1.1,6.1-2.4,8.3-3.9c2.2-1.5,3.9-2.8,5.1-3.9
		c0.1-0.1,0.1-0.1,0.2-0.2l-0.9,8.1h20.8l7.9-64.8H423L420.9,70.2z M416.7,103.4c-1.3,2.2-2.8,4-4.5,5.4c-1.7,1.4-3.4,2.5-5.3,3.3
		c-1.8,0.7-3.7,1.1-5.7,1.1c-3.3,0-6.2-0.7-8.7-2.2c-2.5-1.4-4.5-3.5-5.9-6.1c-1.4-2.6-2.1-5.7-2.1-9.3c0-2,0.3-4,1-6.2
		c0.7-2.1,1.8-4.1,3.3-6c1.5-1.9,3.5-3.4,5.9-4.6c2.4-1.2,5.2-1.8,8.6-1.8c2.7,0,5,0.4,7.1,1.3c2.1,0.8,3.8,2,5.2,3.6
		c1.4,1.5,2.3,3.4,2.8,5.6L416.7,103.4z" />
    <path class="st0" d="M490.9,62.3c-3.4,1.3-6.8,3.3-10.1,5.9c-3.3,2.6-6.2,5.9-8.5,9.7l0.6-14.4h-18.7l-7.9,64.8H467l3.1-25.4
		c0.5-3.8,1.9-7.4,4.2-11c2.3-3.6,5.3-6.4,9-8.6c3.8-2.2,8-3,12.8-2.4l3.6-20.8C497.2,60.3,494.3,60.9,490.9,62.3z" />
    <polygon class="st0" points="569,73 557.9,61.9 524.2,84.6 533.1,11.3 512.4,11.3 498.1,128.3 518.9,128.3 521.6,105.7 528,101.4
		540.5,128.3 564.7,128.3 544,90.3 	" />
  </g>
  <g>
    <path class="st1"
      d="M113.6,85.9c-14.8,8.9-61.9,37.8-71.9,43.8c12.4,0,27.4,0.3,46.3-11.3C103,109.3,110.2,93.4,113.6,85.9z" />
  </g>
  <path class="st0" d="M24.1,130.1H0l3.1-25.7L16,0c0,0,33,0,44.2,0c22.3-0.2,43.7,6,53.8,31.8c-8,5.5-17.8,10.1-23.2,14.5
	c-5.3-16.4-20.4-22.1-33.7-22.1c-7.7,0-18.6,0.2-18.6,0.2l-9.5,70l132.1-77.3l-11.7,35.2L24.1,130.1z" />
</svg>